<svg version="1" xmlns="http://www.w3.org/2000/svg" width="682.667" height="682.667" viewBox="0 0 512.000000 512.000000"><path d="M390.6 220.9c-4.1 2.7-5.5 5.7-5.6 11.5 0 5.2 1.4 18.1 3.1 27.7.5 3.1 1.4 11.9 2 19.5.5 7.6 1.5 15.8 2.1 18.2 1.6 6.5 6.4 8.1 11.3 3.9 2.2-1.8 3.1-4.3 5.4-15.2 1.6-7.2 3.3-16.8 3.9-21.5 1.5-11 2.7-37 1.9-40.1-1-4-5.5-5.9-13.9-5.9-5.5 0-8 .5-10.2 1.9zM94 221.7c-14.6.6-24 4-24 8.7 0 2.7 1.3 4.3 6.3 8 4.9 3.6 8.2 10.3 10.2 20.9 1.4 7.7 1.6 17.3 1.2 80.4-.4 66.9-.7 74.9-3.2 85-.3 1.2-2.8 4.7-5.7 7.8-6.1 6.7-5.8 8.3 1.8 10.3 7.2 1.9 45.2 2.8 53.9 1.3 6.8-1.2 11.5-3.2 11.5-5 0-.5-3.1-4.2-6.8-8.2-7.2-7.8-9-10.9-11.6-20.1-6.1-21.4-7.9-53.1-7.6-132.8.1-37.3-.2-51.3-1-53.2-1.8-3.8-3.9-4.1-25-3.1zM297.5 221.6c-14.1.8-23.1 3.9-24.2 8.3-.5 2 .5 3.4 6 8.5 9.3 8.6 10.6 12.8 11.7 38.6 1.2 25.8 1.2 75.6 0 111.6-1 33-1.6 35.7-8.9 44.1-4.7 5.3-4.8 7.2-.8 9.1 7.1 3.4 54.3 4.2 63.2 1.1 6-2.1 5.6-4.2-2-12.3-7.8-8.2-9.8-12.5-13.4-28.2-4.4-18.9-6-54.6-6.1-131.5 0-42.1-.2-46.8-1.7-48-1.6-1.4-11.8-2-23.8-1.3zM196.2 229.1c-4.7 3.1-6.2 6.6-6.2 15.1 0 12.6 4.7 17.1 18 17.2 8.8.1 13.1-1.7 17.3-7.1 2.3-3.1 2.7-4.6 2.7-10.2 0-4.9-.5-7.5-2.1-10-3.9-6.4-5.3-7-16.4-7-8.5-.1-10.5.3-13.3 2zM200.5 296.7c-1.6.2-6.5 1.3-10.8 2.3-18 4.5-19.9 8.6-7.3 16.5 5.1 3.2 8.1 7.4 10.3 14.6 1.5 4.6 1.7 10.2 1.8 39.4 0 36.8-.7 44.2-5.2 52.5-1.3 2.5-4 5.6-5.9 7-10.1 7.3-10.3 7.5-10.4 10.3 0 2.1.6 3 2.6 3.7 3.5 1.4 62.8 1.3 67.7-.1 3.5-.9 3.8-1.3 3.5-4.2-.2-2.5-1.4-3.9-6-7.2-8.1-5.6-11.4-10.6-12.9-19.1-.7-4.4-1.4-26.3-1.8-59.7l-.6-52.9-2.4-1.9c-1.9-1.6-3.8-1.9-11-1.8-4.7.1-9.9.4-11.6.6z"/></svg>